<?xml version="1.0" standalone="no"?>
<!DOCTYPE svg PUBLIC "-//W3C//DTD SVG 20010904//EN"
 "http://www.w3.org/TR/2001/REC-SVG-20010904/DTD/svg10.dtd">
<svg version="1.0" xmlns="http://www.w3.org/2000/svg"
 width="440.000000pt" height="441.000000pt" viewBox="0 0 440.000000 441.000000"
 preserveAspectRatio="xMidYMid meet">

<g transform="translate(0.000000,441.000000) scale(0.100000,-0.100000)"
fill="#000000" stroke="none">
<path d="M1870 3313 c1 -5 7 -19 15 -33 20 -34 19 -89 -2 -113 -14 -16 -15
-19 -3 -15 8 2 22 16 30 31 13 23 13 32 -4 81 -11 31 -23 56 -28 56 -4 0 -8
-3 -8 -7z"/>
<path d="M1796 3243 c15 -37 34 -64 34 -50 0 16 -33 87 -41 87 -4 0 -1 -17 7
-37z"/>
<path d="M1730 3241 c0 -8 -7 -11 -15 -7 -8 3 -15 2 -15 -2 0 -4 -28 -18 -62
-31 -35 -14 -58 -26 -52 -28 6 -2 32 6 58 17 54 23 66 20 66 -16 0 -30 -14
-60 -43 -91 -15 -17 -17 -23 -6 -23 24 1 52 51 57 104 2 28 9 57 15 64 5 7 7
15 3 19 -3 3 -6 1 -6 -6z"/>
<path d="M1452 3132 c-35 -14 -60 -28 -55 -29 6 -2 31 6 57 17 63 26 69 26 62
-7 -7 -32 7 -13 18 25 9 29 -2 28 -82 -6z"/>
<path d="M1473 3070 c8 -22 8 -38 0 -60 -6 -16 -8 -30 -3 -30 11 0 20 26 20
60 0 34 -9 60 -20 60 -5 0 -3 -13 3 -30z"/>
<path d="M1310 3045 c-3 -22 -9 -39 -15 -39 -5 1 -23 4 -38 8 -19 4 -26 3 -22
-4 3 -5 14 -10 23 -10 40 -1 46 -16 24 -55 -30 -50 -27 -69 3 -20 14 22 26 44
28 49 2 5 17 5 35 -2 18 -6 32 -7 32 -2 0 4 -13 13 -29 18 -26 9 -30 16 -33
54 l-4 43 -4 -40z"/>
<path d="M2234 3000 c-32 -16 -93 -56 -136 -87 -100 -76 -267 -223 -280 -246
-21 -39 50 -101 130 -113 61 -9 116 10 170 59 53 49 142 181 192 285 32 68 33
75 20 99 -8 15 -20 28 -26 30 -5 2 -37 -10 -70 -27z m-40 -132 c-106 -179
-198 -266 -235 -222 -12 15 -9 20 22 48 19 17 75 66 123 109 88 77 104 88 90
65z"/>
<path d="M3144 2951 c-200 -98 -948 -545 -1001 -598 -29 -28 -29 -47 -2 -74
29 -29 52 -21 200 72 70 43 129 79 133 79 4 0 2 -9 -4 -19 -41 -78 78 -269
190 -302 71 -22 142 8 177 74 25 48 22 174 -6 267 -25 83 -33 95 -75 121 l-28
17 123 72 c204 120 219 129 341 208 118 77 140 101 118 127 -20 24 -41 18
-166 -44z m-478 -459 c-89 -126 -87 -124 -104 -87 -8 16 -23 28 -43 32 l-31 6
49 30 c109 69 148 87 151 71 2 -8 -8 -32 -22 -52z m72 -203 c-4 -64 -23 -81
-63 -55 l-26 17 38 44 c21 24 42 44 46 44 4 1 7 -22 5 -50z"/>
<path d="M1081 2964 c-29 -14 -51 -27 -49 -29 7 -8 108 36 108 46 0 5 -1 9 -2
8 -2 0 -27 -12 -57 -25z"/>
<path d="M935 2919 c-11 -5 -42 -18 -69 -29 -27 -11 -47 -23 -44 -26 3 -3 32
7 63 21 32 14 60 23 63 20 3 -3 0 -16 -6 -30 -6 -14 -8 -25 -3 -25 5 0 14 14
20 31 18 52 15 56 -24 38z"/>
<path d="M1165 2889 c-11 -5 -42 -18 -69 -29 -27 -11 -47 -23 -44 -25 7 -7
148 48 148 57 0 10 -10 9 -35 -3z"/>
<path d="M906 2824 c4 -33 3 -54 -5 -58 -6 -4 -11 -12 -11 -18 0 -7 6 -6 15 2
17 14 20 86 5 110 -6 10 -8 -2 -4 -36z"/>
<path d="M487 2436 c-9 -10 -17 -28 -17 -41 0 -58 12 -68 212 -169 224 -114
254 -120 300 -65 32 39 58 90 58 116 0 46 -35 78 -117 106 -123 43 -189 57
-308 64 -97 5 -113 4 -128 -11z m361 -120 c46 -13 86 -27 89 -30 10 -10 -7
-57 -23 -63 -17 -6 -94 28 -201 89 l-68 39 60 -5 c33 -3 97 -16 143 -30z"/>
<path d="M3185 2313 c-313 -235 -446 -291 -666 -280 -103 5 -107 5 -117 -17
-14 -30 0 -52 51 -77 36 -19 53 -21 132 -16 121 7 228 37 360 101 128 63 215
126 303 221 69 73 88 105 79 129 -11 28 -40 16 -142 -61z"/>
<path d="M595 1990 c-214 -32 -393 -59 -397 -59 -4 -1 -15 -12 -23 -25 -23
-35 -6 -73 38 -81 18 -4 116 5 222 21 l189 27 18 -23 c10 -12 18 -28 18 -35 0
-25 75 -140 121 -187 32 -32 62 -51 95 -61 l49 -14 -62 -31 c-94 -48 -143 -56
-215 -36 -61 17 -61 17 -80 -5 -25 -32 -23 -45 12 -75 33 -27 87 -46 134 -46
42 0 203 57 261 92 62 37 155 127 155 149 0 32 -25 41 -65 24 -48 -19 -59 -19
-50 3 23 54 26 101 14 191 -15 109 -14 110 74 130 43 9 57 17 66 38 10 22 9
29 -4 42 -31 32 -156 23 -570 -39z m285 -87 c0 -14 -54 -84 -71 -94 -15 -8
-21 -4 -34 20 -28 56 -21 64 60 74 17 2 33 5 38 6 4 0 7 -2 7 -6z m40 -203
c-6 -12 -16 -20 -23 -17 -20 6 -18 26 5 49 20 20 23 21 26 6 2 -9 -2 -26 -8
-38z"/>
<path d="M2205 1450 c0 -127 4 -200 10 -200 6 0 9 64 7 177 -2 121 0 175 7
168 6 -6 57 -85 114 -175 57 -91 112 -166 121 -168 14 -3 16 15 16 181 0 102
3 192 6 201 4 10 1 16 -7 16 -11 0 -13 -33 -11 -176 2 -105 0 -174 -6 -170 -5
3 -58 82 -117 176 -67 106 -114 170 -124 170 -14 0 -16 -22 -16 -200z"/>
<path d="M2595 1450 c0 -193 1 -200 20 -200 19 0 20 7 20 200 0 193 -1 200
-20 200 -19 0 -20 -7 -20 -200z"/>
<path d="M2745 1450 c0 -127 4 -200 10 -200 6 0 9 62 7 172 -2 102 1 169 6
163 5 -6 39 -82 77 -170 37 -88 68 -161 70 -162 1 -2 35 75 75 170 40 94 77
176 82 182 5 6 8 -65 6 -173 -3 -176 -2 -182 17 -182 19 0 20 7 20 200 0 196
0 200 -21 200 -18 0 -32 -26 -89 -162 -37 -90 -71 -166 -74 -170 -4 -5 -39 67
-78 160 -52 125 -75 168 -89 170 -18 3 -19 -7 -19 -198z"/>
<path d="M3225 1450 l0 -200 113 0 c108 0 112 1 112 22 0 20 -1 20 -18 5 -14
-13 -38 -17 -95 -17 l-77 0 0 101 0 101 70 -4 c42 -2 70 1 70 7 0 6 -28 9 -70
7 l-71 -4 3 84 3 83 71 3 c54 2 75 -1 87 -13 14 -14 16 -13 14 5 -1 19 -8 20
-107 20 l-105 0 0 -200z"/>
<path d="M3605 1517 c-27 -73 -61 -162 -76 -199 -16 -42 -22 -68 -15 -68 6 0
24 41 40 91 l30 90 60 -3 59 -3 31 -87 c27 -77 34 -88 55 -88 17 0 21 3 14 13
-6 6 -41 95 -78 197 -37 102 -68 186 -69 187 -1 1 -24 -57 -51 -130z m64 3
c30 -78 29 -80 -29 -80 -27 0 -50 1 -50 3 0 1 9 27 20 57 12 30 23 61 26 69 6
19 9 15 33 -49z"/>
<path d="M3885 1450 l0 -200 25 0 25 0 -3 100 -3 100 31 0 c42 0 94 23 114 51
34 50 10 116 -51 140 -13 5 -50 9 -81 9 l-57 0 0 -200z m136 167 c27 -17 42
-68 30 -100 -11 -29 -57 -57 -96 -57 -25 0 -25 0 -25 91 l0 91 36 -7 c20 -3
45 -12 55 -18z"/>
<path d="M4165 1450 l0 -200 25 0 25 0 -3 100 -3 100 31 0 c42 0 94 23 114 51
34 50 10 116 -51 140 -13 5 -50 9 -81 9 l-57 0 0 -200z m136 167 c27 -17 42
-68 30 -100 -11 -29 -57 -57 -96 -57 -25 0 -25 0 -25 91 l0 91 36 -7 c20 -3
45 -12 55 -18z"/>
<path d="M1896 1458 c-38 -101 -73 -189 -78 -195 -8 -10 -5 -13 10 -13 13 0
20 5 17 13 -2 6 8 46 24 87 l27 75 57 3 c57 3 58 3 72 -32 8 -19 23 -60 32
-90 15 -46 22 -56 41 -56 19 0 21 3 13 18 -5 10 -37 94 -71 187 -34 94 -65
173 -69 178 -4 4 -38 -75 -75 -175z m89 52 c14 -35 23 -65 21 -67 -2 -2 -26
-3 -54 -1 l-50 3 25 68 c14 37 27 66 29 64 3 -2 15 -32 29 -67z"/>
</g>
</svg>
